<?xml version="1.0" encoding="UTF-8" standalone="no"?>
<svg width="60px" height="60px" viewBox="0 0 60 60" version="1.1" xmlns="http://www.w3.org/2000/svg" xmlns:xlink="http://www.w3.org/1999/xlink" xmlns:sketch="http://www.bohemiancoding.com/sketch/ns">
    <!-- Generator: Sketch 3.2.2 (9983) - http://www.bohemiancoding.com/sketch -->
    <title>Reading</title>
    <desc>Created with Sketch.</desc>
    <defs></defs>
    <g id="stroked" stroke="none" stroke-width="1" fill="none" fill-rule="evenodd" sketch:type="MSPage">
        <g id="Activities" sketch:type="MSLayerGroup" transform="translate(-614.000000, 2.000000)" stroke="#535353" stroke-width="2" stroke-linejoin="round">
            <g id="Reading" transform="translate(619.000000, 10.000000)" sketch:type="MSShapeGroup">
                <path d="M0,0.971428571 C0,0.971428571 6.12199673,1.06226897e-15 12.5,0 C18.8780033,-1.05407794e-15 25,0.971428571 25,0.971428571 L25,34 C25,34 18.9022503,33.0285721 12.5,33.0285714 C6.09774971,33.0285708 0,34 0,34 L0,0.971428571 Z" id="Rectangle-941" stroke-linecap="round"></path>
                <path d="M25,0.971428571 C25,0.971428571 31.1219967,1.06226897e-15 37.5,0 C43.8780033,-1.05407794e-15 50,0.971428571 50,0.971428571 L50,34 C50,34 43.9022503,33.0285721 37.5,33.0285714 C31.0977497,33.0285708 25,34 25,34 L25,0.971428571 Z" id="Rectangle-941" stroke-linecap="round"></path>
                <path d="M22,38 C22,39.6568542 23.3431458,41 25,41 C26.6568542,41 28,39.6568542 28,38 L50.1277237,38" id="Oval-791" stroke-linecap="round"></path>
                <path d="M0,38 L22.0224113,38" id="Line" stroke-linecap="round"></path>
                <path d="M4,6 L21,6" id="Line" stroke-linecap="square" stroke-dasharray="1,4"></path>
                <path d="M29,11 L46,11" id="Line" stroke-linecap="square" stroke-dasharray="1,4"></path>
                <path d="M4,11 L21,11" id="Line" stroke-linecap="square" stroke-dasharray="1,4"></path>
                <path d="M29,16 L46,16" id="Line" stroke-linecap="square" stroke-dasharray="1,4"></path>
                <path d="M4,16 L21,16" id="Line" stroke-linecap="square" stroke-dasharray="1,4"></path>
                <path d="M29,21 L46,21" id="Line" stroke-linecap="square" stroke-dasharray="1,4"></path>
            </g>
        </g>
    </g>
</svg>